<?xml version="1.0" standalone="no"?>
<!DOCTYPE svg PUBLIC "-//W3C//DTD SVG 20010904//EN"
 "http://www.w3.org/TR/2001/REC-SVG-20010904/DTD/svg10.dtd">
<svg version="1.0" xmlns="http://www.w3.org/2000/svg"
 width="1024.000000pt" height="1024.000000pt" viewBox="0 0 1024.000000 1024.000000"
 preserveAspectRatio="xMidYMid meet">
<metadata>
Created by potrace 1.11, written by Peter Selinger 2001-2013
</metadata>
<g transform="translate(0.000000,1024.000000) scale(0.100000,-0.100000)"
fill="#000000" stroke="none">
<path d="M245 10226 c-106 -26 -206 -127 -231 -234 -20 -84 -20 -9659 -1
-9743 26 -110 126 -210 235 -235 85 -20 9659 -20 9744 0 109 25 209 125 235
235 19 84 19 9659 -1 9743 -25 109 -125 209 -235 235 -80 18 -9670 18 -9746
-1z m6033 -3578 l1133 -1133 780 783 c428 430 781 782 784 782 3 0 5 -707 5
-1571 l0 -1571 -699 -699 -698 -699 -2449 0 -2449 0 -702 702 -703 703 0 1567
c0 863 3 1568 7 1568 5 0 360 -352 790 -782 l783 -783 1133 1133 c622 622
1136 1132 1142 1132 5 0 520 -510 1143 -1132z"/>
<path d="M4612 5513 l-521 -528 522 -523 522 -523 524 527 524 526 -525 525
-524 524 -522 -528z"/>
</g>
</svg>
